<?xml version="1.0"?>
<svg xmlns="http://www.w3.org/2000/svg" width="26" height="26" viewBox="0 0 26 26">
    <path d="M 4.875 0 C 2.182 0 0 2.182 0 4.875 L 0 21.125 C 0 23.818 2.182 26 4.875 26 L 21.125 26 C 23.818 26 26 23.818 26 21.125 L 26 4.875 C 26 2.182 23.819 0 21.125 0 L 4.875 0 z M 4.875 2 L 21.125 2 C 22.71 2 24 3.29 24 4.875 L 24 21.125 C 24 22.71 22.71 24 21.125 24 L 4.875 24 C 3.29 24 2 22.71 2 21.125 L 2 4.875 C 2 3.29 3.29 2 4.875 2 z M 19.1875 4.625 C 18.9445 4.67125 18.7115 4.81225 18.5625 5.03125 L 10.75 16.5625 L 7.125 12.96875 C 6.75 12.59375 6.15825 12.59375 5.78125 12.96875 L 4.40625 14.34375 C 4.02825 14.71975 4.02825 15.34275 4.40625 15.71875 L 9.9375 21.25 C 10.2495 21.56 10.7495 21.78125 11.1875 21.78125 C 11.6265 21.78125 12.05975 21.50675 12.34375 21.09375 L 21.75 7.21875 C 22.049 6.78075 21.941 6.173 21.5 5.875 L 19.90625 4.78125 C 19.68625 4.63325 19.4305 4.57875 19.1875 4.625 z"/>
</svg>
