<!--?xml version="1.0" encoding="utf-8"?-->
<!-- Generator: Adobe Illustrator 18.1.1, SVG Export Plug-In . SVG Version: 6.00 Build 0)  -->

<svg version="1.1" id="_x31_0" xmlns="http://www.w3.org/2000/svg" xmlns:xlink="http://www.w3.org/1999/xlink" x="0px" y="0px" viewBox="0 0 512 512" style="width: 512px; height: 512px; opacity: 1;" xml:space="preserve">
<style type="text/css">
	.st0{fill:#374149;}
</style>
<g>
	<path class="st0" d="M411.027,269.003c-0.184-0.355-0.402-0.633-0.672-0.914c-0.164-0.168-0.336-0.301-0.523-0.438
		c-0.504-0.371-1.027-0.598-1.641-0.719c-0.258-0.05-0.512-0.148-0.77-0.148c-0.031,0-0.054,0.015-0.086,0.015
		c-0.325,0.008-0.614,0.086-0.934,0.172c-0.387,0.102-0.738,0.274-1.082,0.493c-0.195,0.121-0.422,0.117-0.606,0.277l-52.037,45.619
		c-0.894,0.79-1.41,1.922-1.41,3.114v73.739c0,6.175-5.004,11.179-11.18,11.179H71.579c-6.175,0-11.179-5.004-11.179-11.179v-175.77
		v-16.476l0.078-15.91c-0.035,0.164-0.047,0.336-0.078,0.5v-0.516v-60.255c0-6.175,5.004-11.179,11.179-11.179h268.689
		c1.008,0,1.977-0.367,2.734-1.031l59.365-52.119c2.867-2.519,1.086-7.25-2.734-7.25H28.534C12.777,50.207,0,62.98,0,78.738v354.521
		c0,15.762,12.777,28.534,28.534,28.534h354.517c15.762,0,28.534-12.773,28.534-28.534V270.855c0-0.356-0.199-0.606-0.278-0.922
		C411.23,269.609,411.175,269.281,411.027,269.003z"></path>
	<path class="st0" d="M505.508,80.655c-6.742-9.101-17.613-14.534-29.085-14.534c-8.687,0-17.074,3.078-23.605,8.671
		L240.182,256.778L165.9,175.917c-7.129-7.757-17.285-12.206-27.858-12.206c-7.558,0-14.718,2.278-20.71,6.586
		c-8.14,5.859-13.398,14.816-14.421,24.578c-1.031,9.765,2.23,19.562,8.945,26.87L212.57,331.364
		c6.187,6.738,15.058,10.602,24.343,10.602c7.93,0,15.582-2.813,21.546-7.914l240.796-206.09
		C513.426,115.83,516.175,95.053,505.508,80.655z"></path>
</g>
</svg>
